{"title":"The Flash 2014 S01E23 - HDTV - 720p - x264 - AAC 5.1 -={SPARROW}","uid":11949097,"size":420466994,"categoryP":"video","categoryS":"other","magnet":"?xt=urn:btih:dbfd75c63b8dcc017b40d27406753800ae013ccc&amp;dn=The+Flash+2014+S01E23+-+HDTV+-+720p+-+x264+-+AAC+5.1+-%3D%7BSPARROW%7D&amp;tr=udp%3A%2F%2Ftracker.openbittorrent.com%3A80&amp;tr=udp%3A%2F%2Fopen.demonii.com%3A1337&amp;tr=udp%3A%2F%2Ftracker.coppersurfer.tk%3A6969&amp;tr=udp%3A%2F%2Fexodus.desync.com%3A6969","seeders":3,"leechers":0,"uploader":"SS132203","files":3,"time":1432131668,"description":"The Flash 2014 S01E23 - HDTV - 720p - x264 - AAC 5.1 -={SPARROW}=- \n &lt;a href=&quot;\nhttp://imgsparrow.co/image/Ti&quot; rel=&quot;nofollow&quot; target=&quot;_NEW&quot;&gt;\nhttp://imgsparrow.co/image/Ti&lt;/a&gt;\n\nInfo : - \n\nSOURCE : DiMENSION (Thanks a Ton)\nSubtitles : English\n\nFormat                      : MPEG-4\nFormat profile              : Base Media\nCodec ID                    : isom\nFile size                   : 401 MiB\nDuration                    : 44mn 31s\nOverall bit rate mode       : Variable\nOverall bit rate            : 1 259 Kbps\n\nVideo\nID                          : 1\nFormat                      : AVC\nFormat/Info                 : Advanced Video Codec\nFormat profile              : &lt;a class=&quot;__cf_email__&quot; href=&quot;/cdn-cgi/l/email-protection&quot; data-cfemail=&quot;6b260a02052b275f455b&quot;&gt;[email&amp;#160;protected]&lt;/a&gt;&lt;script data-cfhash='f9e31' type=&quot;text/javascript&quot;&gt;\n/* &lt;![CDATA[ */!function(){try{var t=&quot;currentScript&quot;in document?document.currentScript:function(){for(var t=document.getElementsByTagName(&quot;script&quot;),e=t.length;e--;)if(t[e].getAttribute(&quot;data-cfhash&quot;))return t[e]}();if(t&amp;&amp;t.previousSibling){var e,r,n,i,c=t.previousSibling,a=c.getAttribute(&quot;data-cfemail&quot;);if(a){for(e=&quot;&quot;,r=parseInt(a.substr(0,2),16),n=2;a.length-n;n+=2)i=parseInt(a.substr(n,2),16)^r,e+=String.fromCharCode(i);e=document.createTextNode(e),c.parentNode.replaceChild(e,c)}t.parentNode.removeChild(t);}}catch(u){}}()/* ]]&gt; */&lt;/script&gt;\nFormat settings, CABAC      : Yes\nFormat settings, ReFrames   : 4 frames\nCodec ID                    : avc1\nCodec ID/Info               : Advanced Video Coding\nDuration                    : 44mn 31s\nBit rate                    : 1 000 Kbps\nMaximum bit rate            : 12.2 Mbps\nWidth                       : 1 280 pixels\nHeight                      : 720 pixels\nDisplay aspect ratio        : 16:9\nFrame rate mode             : Constant\nFrame rate                  : 23.976 fps\nColor space                 : YUV\nChroma subsampling          : 4:2:0\nBit depth                   : 8 bits\nScan type                   : Progressive\nBits/(Pixel*Frame)          : 0.045\nStream size                 : 319 MiB (79%)\nWriting library             : x264 core 142 r2479 dd79a61\nEncoding settings           : cabac=1 / ref=1 / deblock=1:0:0 / analyse=0x1:0x111 / me=hex / subme=2 / psy=1 / psy_rd=1.00:0.00 / mixed_ref=0 / me_range=16 / chroma_me=1 / trellis=0 / 8x8dct=0 / cqm=0 / deadzone=21,11 / fast_pskip=1 / chroma_qp_offset=0 / threads=6 / lookahead_threads=2 / sliced_threads=0 / nr=0 / decimate=1 / interlaced=0 / bluray_compat=0 / constrained_intra=0 / bframes=3 / b_pyramid=2 / b_adapt=1 / b_bias=0 / direct=1 / weightb=1 / open_gop=0 / weightp=1 / keyint=240 / keyint_min=24 / scenecut=40 / intra_refresh=0 / rc_lookahead=10 / rc=2pass / mbtree=1 / bitrate=1000 / ratetol=1.0 / qcomp=0.60 / qpmin=0 / qpmax=69 / qpstep=4 / cplxblur=20.0 / qblur=0.5 / vbv_maxrate=20000 / vbv_bufsize=25000 / nal_hrd=none / filler=0 / ip_ratio=1.40 / aq=1:1.00\nEncoded date                : UTC 2015-05-19 06:12:45\nTagged date                 : UTC 2015-05-19 06:12:53\nColor primaries             : BT.709\nTransfer characteristics    : BT.709\nMatrix coefficients         : BT.709\nColor range                 : Limited\n\nAudio\nID                          : 2\nFormat                      : AAC\nFormat/Info                 : Advanced Audio Codec\nFormat profile              : LC\nCodec ID                    : 40\nDuration                    : 44mn 31s\nBit rate mode               : Variable\nBit rate                    : 255 Kbps\nMaximum bit rate            : 298 Kbps\nChannel(s)                  : 2 channels\nChannel(s)_Original         : 6 channels\nChannel positions           : Front: L C R, Side: L R, LFE\nSampling rate               : 48.0 KHz\nCompression mode            : Lossy\nStream size                 : 81.2 MiB (20%)\n\nScreens : - \n &lt;a href=&quot;\nhttp://imgsparrow.co/image/TV&quot; rel=&quot;nofollow&quot; target=&quot;_NEW&quot;&gt;\nhttp://imgsparrow.co/image/TV&lt;/a&gt;\n &lt;a href=&quot;\nhttp://imgsparrow.co/image/N2&quot; rel=&quot;nofollow&quot; target=&quot;_NEW&quot;&gt;\nhttp://imgsparrow.co/image/N2&lt;/a&gt;","torrent":{"xt":"urn:btih:dbfd75c63b8dcc017b40d27406753800ae013ccc","amp;dn":"The+Flash+2014+S01E23+-+HDTV+-+720p+-+x264+-+AAC+5.1+-%3D%7BSPARROW%7D","amp;tr":["udp%3A%2F%2Ftracker.openbittorrent.com%3A80","udp%3A%2F%2Fopen.demonii.com%3A1337","udp%3A%2F%2Ftracker.coppersurfer.tk%3A6969","udp%3A%2F%2Fexodus.desync.com%3A6969"],"infoHash":"dbfd75c63b8dcc017b40d27406753800ae013ccc","infoHashBuffer":{"type":"Buffer","data":[219,253,117,198,59,141,204,1,123,64,210,116,6,117,56,0,174,1,60,204]},"announce":[],"urlList":[]}}